<?xml version="1.0" encoding="utf-8"?>
<!-- Generator: Adobe Illustrator 26.2.1, SVG Export Plug-In . SVG Version: 6.00 Build 0)  -->
<svg version="1.1" id="레이어_1" xmlns="http://www.w3.org/2000/svg" xmlns:xlink="http://www.w3.org/1999/xlink" x="0px"
	 y="0px" viewBox="0 0 20 20" style="enable-background:new 0 0 20 20;" xml:space="preserve">
<style type="text/css">
	.st0{fill:#FFFFFF;}
</style>
<g>
	<g>
		<rect x="0.9" y="2.1" class="st0" width="18.4" height="3.6"/>
		<path d="M19.3,6.2H0.9C0.7,6.2,0.5,6,0.5,5.8V2.1c0-0.2,0.2-0.4,0.4-0.4h18.4c0.2,0,0.4,0.2,0.4,0.4v3.6C19.7,6,19.5,6.2,19.3,6.2
			z M1.3,5.4h17.6V2.5H1.3V5.4z"/>
	</g>
	<g>
		<rect x="0.9" y="5.7" class="st0" width="18.4" height="13"/>
		<path d="M19.3,19.2H0.9c-0.2,0-0.4-0.2-0.4-0.4v-13c0-0.2,0.2-0.4,0.4-0.4h18.4c0.2,0,0.4,0.2,0.4,0.4v13
			C19.7,19,19.5,19.2,19.3,19.2z M1.3,18.3h17.6V6.1H1.3V18.3z"/>
	</g>
	<g>
		<path d="M4.9,3.4C4.7,3.4,4.5,3.2,4.5,3V0.9c0-0.2,0.2-0.4,0.4-0.4s0.4,0.2,0.4,0.4V3C5.2,3.2,5,3.4,4.9,3.4z"/>
		<path d="M8.3,3.4C8.1,3.4,8,3.2,8,3V0.9c0-0.2,0.2-0.4,0.4-0.4s0.4,0.2,0.4,0.4V3C8.7,3.2,8.5,3.4,8.3,3.4z"/>
		<path d="M11.8,3.4c-0.2,0-0.4-0.2-0.4-0.4V0.9c0-0.2,0.2-0.4,0.4-0.4s0.4,0.2,0.4,0.4V3C12.2,3.2,12,3.4,11.8,3.4z"/>
		<path d="M15.3,3.4C15.1,3.4,15,3.2,15,3V0.9c0-0.2,0.2-0.4,0.4-0.4s0.4,0.2,0.4,0.4V3C15.7,3.2,15.5,3.4,15.3,3.4z"/>
	</g>
</g>
<g>
	<path d="M5.3,11.2h-1c-0.2,0-0.4-0.2-0.4-0.4V9.6c0-0.2,0.2-0.4,0.4-0.4h1c0.2,0,0.4,0.2,0.4,0.4v1.2C5.7,11,5.6,11.2,5.3,11.2z"/>
	<path d="M10.6,11.2h-1c-0.2,0-0.4-0.2-0.4-0.4V9.6c0-0.2,0.2-0.4,0.4-0.4h1c0.2,0,0.4,0.2,0.4,0.4v1.2C11,11,10.8,11.2,10.6,11.2z"
		/>
	<path d="M15.9,11.2h-1c-0.2,0-0.4-0.2-0.4-0.4V9.6c0-0.2,0.2-0.4,0.4-0.4h1c0.2,0,0.4,0.2,0.4,0.4v1.2C16.3,11,16.1,11.2,15.9,11.2
		z"/>
	<path d="M5.3,15.2h-1c-0.2,0-0.4-0.2-0.4-0.4v-1.2c0-0.2,0.2-0.4,0.4-0.4h1c0.2,0,0.4,0.2,0.4,0.4v1.2C5.7,15,5.6,15.2,5.3,15.2z"
		/>
	<path d="M10.6,15.2h-1c-0.2,0-0.4-0.2-0.4-0.4v-1.2c0-0.2,0.2-0.4,0.4-0.4h1c0.2,0,0.4,0.2,0.4,0.4v1.2C11,15,10.8,15.2,10.6,15.2z
		"/>
	<path d="M15.9,15.2h-1c-0.2,0-0.4-0.2-0.4-0.4v-1.2c0-0.2,0.2-0.4,0.4-0.4h1c0.2,0,0.4,0.2,0.4,0.4v1.2
		C16.3,15,16.1,15.2,15.9,15.2z"/>
</g>
</svg>
