<?xml version="1.0" encoding="utf-8"?>
<!-- Generator: Adobe Illustrator 27.0.0, SVG Export Plug-In . SVG Version: 6.00 Build 0)  -->
<svg version="1.1" id="Layer_1" xmlns="http://www.w3.org/2000/svg" xmlns:xlink="http://www.w3.org/1999/xlink" x="0px" y="0px"
	 viewBox="0 0 600 150" style="enable-background:new 0 0 600 150;" xml:space="preserve">
<style type="text/css">
	.st0{fill:#353338;}
	.st1{fill:#2A317C;}
</style>
<path class="st0" d="M573.9,75c-23.4,23.4-55.7,37.9-91.3,37.9c-35.6,0-67.9-14.5-91.3-37.9l-26.1,26.1l0,0
	c30.1,30.1,71.6,48.7,117.4,48.7c45.8,0,87.3-18.6,117.4-48.7l0,0L573.9,75z"/>
<path class="st0" d="M26.1,75c23.4,23.4,55.7,37.9,91.3,37.9c35.6,0,67.9-14.5,91.3-37.9l26.1,26.1l0,0
	c-30.1,30.1-71.6,48.7-117.4,48.7c-45.8,0-87.3-18.6-117.4-48.7l0,0L26.1,75z"/>
<path class="st1" d="M208.7,75c23.4-23.4,55.7-37.9,91.3-37.9c35.6,0,67.9,14.5,91.3,37.9l26.1-26.1l0,0
	C387.3,18.8,345.8,0.2,300,0.2c-45.8,0-87.3,18.6-117.4,48.7l0,0L208.7,75z"/>
</svg>
