<?xml version="1.0" encoding="utf-8"?>
<!-- Generator: Adobe Illustrator 27.0.0, SVG Export Plug-In . SVG Version: 6.00 Build 0)  -->
<svg version="1.1" id="Layer_1" xmlns="http://www.w3.org/2000/svg" xmlns:xlink="http://www.w3.org/1999/xlink" x="0px" y="0px"
	 viewBox="0 0 600 150" style="enable-background:new 0 0 600 150;" xml:space="preserve">
<style type="text/css">
	.st0{fill:#353338;}
</style>
<path class="st0" d="M256.1,2.8c-3.5,0-6,3-6,7.2c0,4.2,2.5,7.2,6,7.2c3.5,0,6-3,6-7.2C262.1,5.9,259.6,2.8,256.1,2.8 M256.1,15.3
	c-2.4,0-4.1-2.2-4.1-5.3s1.7-5.3,4.1-5.3c2.4,0,4.1,2.2,4.1,5.3S258.5,15.3,256.1,15.3"/>
<path class="st0" d="M303.8,9.7h-4v1.9h3.9c-0.5,2.2-1.9,3.7-3.9,3.7c-2.4,0-4.1-2.2-4.1-5.3s1.7-5.3,4.1-5.3c1.7,0,3.1,1.2,3.7,3h2
	c-0.7-3-2.9-4.9-5.7-4.9c-3.5,0-6,3-6,7.2c0,4.2,2.5,7.2,6,7.2c3.5,0,6-3,6-7.2c0-0.1,0-0.2,0-0.3H303.8z"/>
<polygon class="st0" points="281.6,13.9 274.8,3.1 272.6,3.1 272.5,3.1 272.5,17 274.5,17 274.5,6.1 281.3,17 281.6,17 283.6,17 
	283.6,3.1 281.6,3.1 "/>
<path class="st0" d="M196.1,10.4c0,2.9-1.6,5-3.8,5c-2.3,0-3.8-2.1-3.8-5V3.2h-1.9v7.2c0,4,2.4,6.9,5.8,6.9c3.4,0,5.8-2.9,5.8-6.9
	V3.2h-1.9V10.4z"/>
<path class="st0" d="M170.5,8.9L170.5,8.9c-3.1,0-3.1-1.4-3.1-2.1c0-1,0-2.1,3.1-2.1c3.1,0,3.1,1,3.1,2.1h1.9c0-2.8-1.5-4-5-4
	c-3.4,0-5,1.3-5,4c0,1.8,0.9,4,5,4h0c3.5,0,3.5,1.5,3.5,2.3c0,0.7,0,2.3-3.5,2.3c-3.5,0-3.5-1.5-3.5-2.3H165c0,1.6,0.7,4.2,5.5,4.2
	c4.5,0,5.5-2.3,5.5-4.2C176,11.2,175.1,8.9,170.5,8.9"/>
<path class="st0" d="M214,8.9L214,8.9c-3.1,0-3.1-1.4-3.1-2.1c0-1,0-2.1,3.1-2.1c3.1,0,3.1,1,3.1,2.1h1.9c0-2.8-1.5-4-5-4
	c-3.4,0-5,1.3-5,4c0,1.8,0.9,4,5,4h0c3.5,0,3.5,1.5,3.5,2.3c0,0.7,0,2.3-3.5,2.3c-3.5,0-3.5-1.5-3.5-2.3h-1.9c0,1.6,0.7,4.2,5.5,4.2
	c4.5,0,5.5-2.3,5.5-4.2C219.5,11.2,218.6,8.9,214,8.9"/>
<polygon class="st0" points="232.9,15.1 232.5,15.1 232.5,14.6 232.5,13.8 232.5,10.5 239.4,10.5 239.4,8.6 232.5,8.6 232.5,5 
	239.6,5 239.6,3.1 232.5,3.1 230.5,3.1 230.5,3.1 230.5,5 230.5,5 230.5,8.6 230.5,8.6 230.5,10.5 230.5,10.5 230.5,15.1 
	230.5,16.1 230.5,17 231.4,17 232.5,17 239.8,17 239.8,15.1 233.6,15.1 "/>
<polygon class="st0" points="371.7,3 366.9,3 366.9,4.9 371.7,4.9 371.7,17.1 373.6,17.1 373.6,4.9 378.4,4.9 378.4,3 373.6,3 "/>
<rect x="409.3" y="3" class="st0" width="1.9" height="14.1"/>
<path class="st0" d="M395,3L395,3h-4.4h-1h-1v14.1h1.9v-6.3h4.4c1.1,0,2-0.4,2.8-1.2c0.7-0.7,1.2-1.7,1.2-2.8v0c0-1.1-0.4-2-1.2-2.8
	C397,3.4,396.1,3,395,3 M396.4,8.3c-0.4,0.4-0.9,0.6-1.4,0.6h-4.4v-4h4.4c0.5,0,1,0.2,1.4,0.6c0.4,0.4,0.6,0.9,0.6,1.4
	C397,7.4,396.8,7.9,396.4,8.3"/>
<path class="st0" d="M356.1,9.5c0.7-0.7,1.1-1.7,1.1-2.7v0c0-1-0.4-2-1.1-2.7c-0.7-0.7-1.7-1.1-2.7-1.1h0H349h-1h-1v3.8v3.8v6.5h1.9
	v-4.7v-1.7h3.1l4.5,6.5h2.4l-4.6-6.6C355,10.3,355.6,10,356.1,9.5 M349,8.7V6.8V4.9h4.4c0.5,0,1,0.2,1.3,0.6
	c0.4,0.4,0.6,0.8,0.6,1.3v0c0,0.5-0.2,1-0.6,1.3c-0.4,0.4-0.8,0.6-1.3,0.6h-0.2h-2.4H349z"/>
<path class="st0" d="M331.3,3h-1.4h-0.6l-5.1,14.1h1.9l1.6-4.3h5.8l1.6,4.3h1.9L331.9,3H331.3z M328.4,11l2.2-6.1l2.2,6.1H328.4z"/>
<path class="st0" d="M432.3,17.1h1.9L429.1,3h-0.6h-1.4h-0.6l-5.1,14.1h1.9l1.6-4.3h5.8L432.3,17.1z M425.7,11l2.2-6.1l2.2,6.1
	H425.7z"/>
<path class="st0" d="M55,58.2l29.1,38.6h12L61.1,50.2l-4.3-5.7c-0.9-1.1-2.6-1.1-3.4,0L49,50.2L13.9,96.8h12L55,58.2z"/>
<polygon class="st0" points="50.2,102.4 6.4,102.4 6.4,112 50.2,112 50.2,145.1 59.8,145.1 59.8,112 103.6,112 103.6,102.4 
	59.8,102.4 "/>
<path class="st0" d="M237.2,51c-16.5,0-29.9,11.8-29.9,37.9c0,26.2,13.4,37.9,29.9,37.9c16.5,0,29.9-11.8,29.9-37.9
	C267.1,62.8,253.7,51,237.2,51 M237.2,117.3c-11.2,0-20.3-8.8-20.3-28.3s9.1-28.3,20.3-28.3c11.2,0,20.3,8.8,20.3,28.3
	S248.4,117.3,237.2,117.3"/>
<polygon class="st0" points="303.4,58.8 303.4,49.2 285.3,49.2 275.6,49.2 275.6,49.2 275.6,58.8 275.6,58.8 275.6,136.8 
	285.3,136.8 285.3,58.8 "/>
<path class="st0" d="M526.7,51c-16.5,0-29.9,11.8-29.9,37.9c0,26.2,13.4,37.9,29.9,37.9c16.5,0,29.9-11.8,29.9-37.9
	C556.6,62.8,543.2,51,526.7,51 M526.7,117.3c-11.2,0-20.3-8.8-20.3-28.3s9.1-28.3,20.3-28.3c11.2,0,20.3,8.8,20.3,28.3
	S537.9,117.3,526.7,117.3"/>
<polygon class="st0" points="592.9,49.2 574.8,49.2 565.1,49.2 565.1,49.2 565.1,58.8 565.1,58.8 565.1,136.8 574.8,136.8 
	574.8,58.8 592.9,58.8 "/>
<polygon class="st0" points="386.2,105.6 386.2,96 324.2,96 324.2,83.2 383,83.2 383,73.6 324.2,73.6 324.2,60.8 384.1,60.8 
	384.1,51.1 324.2,51.1 314.6,51.1 314.6,60.8 314.6,73.6 314.6,83.2 314.6,96 314.6,105.6 324.2,105.6 "/>
<rect x="301.3" y="118.4" class="st0" width="98.3" height="9.6"/>
<rect x="475.4" y="44.9" class="st0" width="9.6" height="91.9"/>
<path class="st0" d="M446.6,50.3h-20.3h-9.6H406v9.6h10.7v55.6H406v9.6h10.7h9.6h20.3h9.6h10.7v-9.6h-10.7V59.9h10.7v-9.6h-10.7
	H446.6z M446.6,115.4h-20.3V59.9h20.3V115.4z"/>
<path class="st0" d="M164.5,46.2v9.6h19.2v37.9c-1-0.9-2.1-1.8-3.3-2.6c-0.3-0.2-0.7-0.5-1.1-0.7l0,0c-0.1,0-0.1-0.1-0.2-0.1
	l-28.8-38.2l-4.3-5.7c-0.9-1.1-2.6-1.1-3.4,0l-4.3,5.7l-32.7,43.4h12l26.7-35.4l19.6,26c-0.2,0-0.4,0-0.7,0c-0.2,0-0.4,0-0.5,0
	c-15.7,0.6-28.2,13.2-28.2,30.4c0,17.6,13.2,30.4,29.4,30.4c16.2,0,29.4-12.8,29.4-30.4c0-0.4,0-0.9,0-1.3h0V55.9v-9.6h-9.6H164.5z
	 M164,137.4c-10.9,0-19.8-8.8-19.8-20.8c0-11.8,8.4-20.4,18.9-20.8c0.1,0,0.2,0,0.4,0c0.2,0,0.3,0,0.5,0c3.8,0,7.4,1.1,10.4,3l0,0
	c0.2,0.2,0.5,0.3,0.7,0.5c5.2,3.6,8.7,9.9,8.7,17.4C183.8,128.7,174.9,137.4,164,137.4"/>
</svg>
