<?xml version="1.0" encoding="utf-8"?>
<!-- Generator: Adobe Illustrator 26.2.1, SVG Export Plug-In . SVG Version: 6.00 Build 0)  -->
<svg version="1.1" id="_x3C_레이어_x3E_" xmlns="http://www.w3.org/2000/svg" xmlns:xlink="http://www.w3.org/1999/xlink"
	 x="0px" y="0px" viewBox="0 0 16.1 16.1" style="enable-background:new 0 0 16.1 16.1;" xml:space="preserve">
<style type="text/css">
	.st0{fill:#FFFFFF;}
</style>
<path class="st0" d="M3.8,16.1h8.5c2.1,0,3.8-1.7,3.8-3.8V3.8c0-2.1-1.7-3.8-3.8-3.8H3.8C1.7,0,0,1.7,0,3.8v8.5
	C0,14.4,1.7,16.1,3.8,16.1z M13.3,1.5c0.7,0,1.2,0.5,1.2,1.2c0,0.7-0.5,1.2-1.2,1.2c-0.7,0-1.2-0.5-1.2-1.2
	C12.1,2.1,12.7,1.5,13.3,1.5z M8,2.9c2.8,0,5.1,2.3,5.1,5.1c0,2.8-2.3,5.1-5.1,5.1c-2.8,0-5.1-2.3-5.1-5.1C2.9,5.2,5.2,2.9,8,2.9z"
	/>
<path class="st0" d="M8,11.4c1.8,0,3.3-1.5,3.3-3.3c0-1.8-1.5-3.3-3.3-3.3C6.2,4.7,4.7,6.2,4.7,8C4.7,9.9,6.2,11.4,8,11.4z"/>
</svg>
