<?xml version="1.0" encoding="utf-8"?>
<!-- Generator: Adobe Illustrator 26.2.0, SVG Export Plug-In . SVG Version: 6.00 Build 0)  -->
<svg version="1.1" id="레이어_1" xmlns="http://www.w3.org/2000/svg" xmlns:xlink="http://www.w3.org/1999/xlink" x="0px"
	 y="0px" viewBox="0 0 40 34" style="enable-background:new 0 0 40 34;" xml:space="preserve">
<style type="text/css">
	.st0{fill:#222222;}
</style>
<g>
	<path class="st0" d="M22.2,25.3h-1.9c2.2-0.1,3.9-1.9,3.9-4.1v-1c0-2.3-1.9-4.2-4.2-4.2s-4.2,1.9-4.2,4.2v1c0,2.2,1.7,4,3.9,4.1
		h-1.9c-2.1,0-3.9,1.3-4.6,3.3l-0.8,2.6c0,0.1,0,0.1,0,0.2c0,0.1,0.1,0.1,0.2,0.1l1.4,0.4c0,0,0.1,0,0.1,0c0.1,0,0.2-0.1,0.2-0.2
		l0.8-2.6c0.4-1.2,1.4-2,2.7-2h4.4c1.2,0,2.3,0.8,2.7,2l0.8,2.6c0,0.1,0.2,0.2,0.3,0.2l1.4-0.4c0.1,0,0.1-0.1,0.2-0.1
		c0-0.1,0-0.1,0-0.2l-0.8-2.6C26.2,26.7,24.3,25.3,22.2,25.3z M20.1,18c1.2,0,2.2,1,2.2,2.2v1c0,1.2-1,2.2-2.2,2.2
		c-1.2,0-2.2-1-2.2-2.2v-1C17.9,19,18.9,18,20.1,18z"/>
	<path class="st0" d="M12.8,28.2l0.7-1.3c0.1-0.1,0-0.3-0.1-0.3c-0.6-0.4-1.4-0.6-2.1-0.6h-0.4c1.3-0.6,2.2-1.9,2.2-3.4v-0.8
		c0-2-1.7-3.7-3.7-3.7c-2,0-3.7,1.7-3.7,3.7v0.8c0,1.5,0.9,2.8,2.2,3.4H7.6c-1.9,0-3.5,1.2-4,3l-0.7,2.3c0,0.1,0,0.1,0,0.2
		c0,0.1,0.1,0.1,0.2,0.1l1.4,0.4c0,0,0.1,0,0.1,0c0.1,0,0.2-0.1,0.2-0.2l0.7-2.3c0.3-0.9,1.2-1.6,2.2-1.6h3.7c0.4,0,0.8,0.1,1.1,0.3
		c0.1,0,0.1,0,0.2,0C12.7,28.4,12.8,28.3,12.8,28.2z M11.2,22.7c0,0.9-0.8,1.7-1.7,1.7c-0.9,0-1.7-0.8-1.7-1.7v-0.8
		c0-0.9,0.8-1.7,1.7-1.7c0.9,0,1.7,0.8,1.7,1.7V22.7z"/>
	<path class="st0" d="M32.5,26.1h-0.4c1.3-0.6,2.2-1.9,2.2-3.4v-0.8c0-2-1.7-3.7-3.7-3.7c-2,0-3.7,1.7-3.7,3.7v0.8
		c0,1.5,0.9,2.8,2.2,3.4h-0.4c-0.7,0-1.5,0.2-2.1,0.6c-0.1,0.1-0.2,0.2-0.1,0.3l0.7,1.3c0,0.1,0.1,0.1,0.2,0.1c0.1,0,0.1,0,0.2,0
		c0.3-0.2,0.7-0.3,1.1-0.3h3.7c1,0,1.9,0.6,2.2,1.6l0.7,2.3c0,0.1,0.1,0.2,0.2,0.2c0,0,0.1,0,0.1,0l1.4-0.4c0.1,0,0.1-0.1,0.2-0.1
		c0-0.1,0-0.1,0-0.2L36.5,29C36,27.3,34.4,26.1,32.5,26.1z M28.9,21.9c0-0.9,0.8-1.7,1.7-1.7c0.9,0,1.7,0.8,1.7,1.7v0.8
		c0,0.9-0.8,1.7-1.7,1.7c-0.9,0-1.7-0.8-1.7-1.7V21.9z"/>
	<path class="st0" d="M19.1,13.7v1.6c0,0.1,0.1,0.3,0.3,0.3h1.5c0.1,0,0.3-0.1,0.3-0.3V12c0-0.1-0.1-0.3-0.3-0.3h-0.7
		c-3.4,0-6.2-1.8-6.2-4.1s2.8-4.1,6.2-4.1c3.4,0,6.2,1.8,6.2,4.1c0,1.6-1.6,3.2-3.9,3.8c-0.1,0-0.1,0.1-0.2,0.1c0,0.1,0,0.1,0,0.2
		l0.4,1.4c0,0.1,0.1,0.1,0.1,0.2c0.1,0,0.1,0,0.2,0c3.2-0.9,5.3-3.1,5.3-5.7c0-3.3-3.7-6.1-8.2-6.1s-8.2,2.7-8.2,6.1
		C11.9,10.8,14.9,13.3,19.1,13.7z"/>
	<path class="st0" d="M8.5,16.1v1.2c0,0.1,0.1,0.3,0.3,0.3h1.5c0.1,0,0.3-0.1,0.3-0.3v-2.8c0-0.1-0.1-0.3-0.3-0.3H9.5
		c-2.7,0-5-1.5-5-3.2s2.3-3.2,5-3.2c0.4,0,0.9,0,1.3,0.1c0.1,0,0.3-0.1,0.3-0.2l0.3-1.4c0-0.1-0.1-0.3-0.2-0.3
		C10.6,5.8,10,5.8,9.5,5.8c-3.8,0-6.9,2.3-6.9,5.2C2.5,13.5,5.1,15.7,8.5,16.1z"/>
	<path class="st0" d="M11.2,14.2l0.4,1.4c0,0.1,0.1,0.1,0.1,0.2c0,0,0.1,0,0.1,0c0,0,0,0,0.1,0c1.2-0.3,2.3-0.9,3.1-1.7
		c0,0,0.1-0.1,0.1-0.2c0-0.1,0-0.1-0.1-0.2l-1-1.1c-0.1-0.1-0.3-0.1-0.4,0c-0.6,0.5-1.3,0.9-2.2,1.2c-0.1,0-0.1,0.1-0.2,0.1
		C11.2,14.1,11.2,14.2,11.2,14.2z"/>
	<path class="st0" d="M29.9,17.5h1.5c0.1,0,0.3-0.1,0.3-0.3v-2.8c0-0.1-0.1-0.3-0.3-0.3h-0.7c-1.6,0-3.2-0.5-4.1-1.4
		c0,0-0.1-0.1-0.2-0.1c-0.1,0-0.1,0-0.2,0.1l-1,1.1c0,0-0.1,0.1-0.1,0.2c0,0.1,0,0.1,0.1,0.2c1.1,1.1,2.7,1.7,4.5,1.9v1.2
		C29.6,17.4,29.8,17.5,29.9,17.5z"/>
	<path class="st0" d="M29.1,7.8c0.1,0,0.1,0.1,0.2,0c0.4-0.1,0.9-0.1,1.3-0.1c2.7,0,5,1.5,5,3.2c0,1.3-1.2,2.5-3.1,3
		c-0.1,0-0.2,0.2-0.2,0.3l0.4,1.4c0,0.1,0.1,0.1,0.1,0.2c0,0,0.1,0,0.1,0c0,0,0,0,0.1,0c2.8-0.8,4.5-2.7,4.5-4.9
		c0-2.9-3.1-5.2-6.9-5.2c-0.6,0-1.1,0-1.7,0.1c-0.1,0-0.1,0.1-0.2,0.1c0,0.1-0.1,0.1,0,0.2L29,7.6C29,7.7,29.1,7.8,29.1,7.8z"/>
</g>
</svg>
