<?xml version="1.0" encoding="utf-8"?>
<!-- Generator: Adobe Illustrator 26.2.0, SVG Export Plug-In . SVG Version: 6.00 Build 0)  -->
<svg version="1.1" id="레이어_1" xmlns="http://www.w3.org/2000/svg" xmlns:xlink="http://www.w3.org/1999/xlink" x="0px"
	 y="0px" viewBox="0 0 32 32" style="enable-background:new 0 0 32 32;" xml:space="preserve">
<style type="text/css">
	.st0{fill:#222222;}
</style>
<g>
	<path class="st0" d="M31.9,12.1c0-0.4-0.2-0.7-0.6-0.9l-3.7-1.4V1.5c0-0.5-0.4-0.9-0.9-0.9H5.9C5.4,0.6,4.9,1,4.9,1.5v8.3l-3.8,1.4
		c-0.4,0.1-0.6,0.5-0.6,0.9c0,0,0,0,0,0.1v16.8c0,1.2,1,2.1,2.1,2.1h27.1c1.2,0,2.1-1,2.1-2.1L31.9,12.1
		C31.9,12.1,31.9,12.1,31.9,12.1z M30.1,28.1l-8.2-7.7l8.2-6.5V28.1z M5.2,16.2c0.1,0.1,0.1,0.1,0.2,0.2l5.4,4.2l-8.4,7.9V14
		L5.2,16.2z M12.2,21.8l3.5,2.7c0.2,0.1,0.4,0.2,0.6,0.2c0.2,0,0.4-0.1,0.6-0.2l3.7-2.9l8.1,7.6H4.3L12.2,21.8z M29.3,12.3l-1.7,1.3
		v-2L29.3,12.3z M25.8,2.4v12.7l-9.5,7.5L12.9,20c0,0,0,0,0-0.1c-0.1-0.1-0.2-0.2-0.3-0.2l-5.8-4.6V2.4H25.8z M4.9,13.7l-1.7-1.4
		l1.7-0.6V13.7z"/>
	<path class="st0" d="M10.4,7.4h11.3c0.6,0,1-0.4,1-1s-0.4-1-1-1H10.4c-0.6,0-1,0.4-1,1S9.8,7.4,10.4,7.4z"/>
	<path class="st0" d="M10.4,12.2h11.3c0.6,0,1-0.4,1-1s-0.4-1-1-1H10.4c-0.6,0-1,0.4-1,1S9.8,12.2,10.4,12.2z"/>
	<path class="st0" d="M10.4,17.1h11.3c0.6,0,1-0.4,1-1s-0.4-1-1-1H10.4c-0.6,0-1,0.4-1,1S9.8,17.1,10.4,17.1z"/>
</g>
</svg>
