<?xml version="1.0" encoding="utf-8"?>
<!-- Generator: Adobe Illustrator 26.2.0, SVG Export Plug-In . SVG Version: 6.00 Build 0)  -->
<svg version="1.1" id="레이어_1" xmlns="http://www.w3.org/2000/svg" xmlns:xlink="http://www.w3.org/1999/xlink" x="0px"
	 y="0px" viewBox="0 0 41 34" style="enable-background:new 0 0 41 34;" xml:space="preserve">
<style type="text/css">
	.st0{fill:#222222;}
</style>
<path class="st0" d="M39.2,20.6l-2,0l2.5-7.4c0.2-0.5,0.1-1-0.2-1.4c-0.3-0.5-0.9-0.7-1.5-0.7h-3.5V8c0-1.1-0.9-2-2-2H17.1l-0.8-3.2
	c0-0.1-0.1-0.2-0.1-0.2c-0.4-0.7-1.2-1.2-2-1.2H3.5c-0.8,0-1.7,0.5-2,1.2c0,0.1-0.1,0.1-0.1,0.2c-0.8,2.8-1,3.7-1.1,4c0,0,0,0,0,0
	c0,0.1,0,0.2,0,0.2v20.3c0,1.1,0.9,2,2,2c0,0,0,0,0,0c0,0,0.1,0,0.1,0h25.2l4.4,3.8c0.3,0.3,0.6,0.3,0.8,0.3c0.7,0,1.2-0.5,1.2-1.2
	l0-3.2h5.1c0.8,0,1.4-0.6,1.4-1.4V22C40.6,21.2,40,20.6,39.2,20.6z M32.4,11.1H7c-0.4,0-0.8,0.3-1,0.7L2.4,22.3V8h13.8h16.1V11.1z
	 M3.4,3.5c0,0,0.1-0.1,0.1-0.1l10.6,0c0,0,0.1,0,0.2,0.1l0.6,2.5H2.7C2.9,5.2,3.2,4.3,3.4,3.5z M3,27.2l4.7-14l29.8,0L35,20.6
	l-0.9,0l0-3.2c0-0.4-0.1-0.7-0.4-0.9c-0.2-0.2-0.5-0.3-0.8-0.3c-0.2,0-0.5,0.1-0.8,0.3l-8.6,7.3c-0.3,0.3-0.5,0.6-0.5,1
	c0,0.4,0.2,0.8,0.5,1l1.7,1.4L3,27.2z M38.6,26.8h-5.1c-0.8,0-1.4,0.6-1.4,1.4l0,2l-6.5-5.5l6.5-5.5l0,2c0,0.4,0.1,0.7,0.4,1
	c0.3,0.3,0.6,0.4,1,0.4l5.1,0V26.8z"/>
</svg>
