<?xml version="1.0" encoding="utf-8"?>
<!-- Generator: Adobe Illustrator 26.2.0, SVG Export Plug-In . SVG Version: 6.00 Build 0)  -->
<svg version="1.1" id="레이어_1" xmlns="http://www.w3.org/2000/svg" xmlns:xlink="http://www.w3.org/1999/xlink" x="0px"
	 y="0px" viewBox="0 0 49 36" style="enable-background:new 0 0 49 36;" xml:space="preserve">
<style type="text/css">
	.st0{fill:#222222;}
</style>
<g>
	<g>
		<path class="st0" d="M38.8,18.3c-0.5,0-1-0.4-1-1c0-0.5,0.4-1,1-1l5.3,0h0c0.5,0,1,0.4,1,1c0,0.5-0.4,1-1,1L38.8,18.3L38.8,18.3z"
			/>
	</g>
	<g>
		<path class="st0" d="M41.4,26.8c-0.2,0-0.3,0-0.5-0.1l-4.3-2.3c-0.5-0.3-0.7-0.8-0.4-1.3c0.3-0.5,0.8-0.7,1.3-0.4l4.3,2.3
			c0.5,0.3,0.7,0.8,0.4,1.3C42,26.6,41.7,26.8,41.4,26.8z"/>
	</g>
	<g>
		<path class="st0" d="M37.1,12c-0.3,0-0.6-0.2-0.8-0.4c-0.3-0.5-0.2-1.1,0.3-1.3l4.1-2.7c0.4-0.3,1.1-0.2,1.3,0.3
			c0.3,0.5,0.2,1.1-0.3,1.3l-4.1,2.7C37.5,12,37.3,12,37.1,12z"/>
	</g>
	<g>
		<g>
			<path class="st0" d="M29,29.3c-0.2,0-0.5-0.1-0.7-0.2L20.7,26c-0.4-0.2-1.3-0.4-1.8-0.4H9.6c-1.1,0-2.1-0.9-2.1-2.1v-13
				c0-1.1,0.9-2.1,2.1-2.1H19c0.5,0,1.3-0.2,1.8-0.4l7.6-3.2c0.2-0.1,0.5-0.2,0.7-0.2c0.9,0,1.6,0.7,1.6,1.7v21.2
				C30.7,28.6,30,29.3,29,29.3z M9.6,10.4c-0.1,0-0.1,0.1-0.1,0.1v13c0,0.1,0.1,0.1,0.1,0.1H19c0.7,0,1.8,0.2,2.5,0.5l7.3,3l0-20.5
				l-7.3,3.1c-0.7,0.3-1.8,0.5-2.5,0.5H9.6z"/>
		</g>
		<g>
			<path class="st0" d="M16.3,32.1C16.3,32.1,16.3,32.1,16.3,32.1h-4.4c-0.4,0-0.7-0.2-0.9-0.6l-2.9-6.3C8,24.9,8,24.6,8.2,24.3
				C8.4,24,8.7,23.9,9,23.9h4.4c0.4,0,0.7,0.2,0.9,0.6l2.8,6.2c0.1,0.1,0.1,0.3,0.1,0.5C17.3,31.7,16.8,32.1,16.3,32.1z M12.5,30.2
				h2.3l-2-4.4h-2.3L12.5,30.2z"/>
		</g>
		<g>
			<path class="st0" d="M19,25.6c-0.5,0-1-0.4-1-1V9.4c0-0.5,0.4-1,1-1c0.5,0,1,0.4,1,1v15.3C20,25.2,19.5,25.6,19,25.6z"/>
		</g>
		<g>
			<path class="st0" d="M8.1,23H4.2c-0.5,0-1-0.4-1-1v-9.8c0-0.5,0.4-1,1-1h3.9c0.5,0,1,0.4,1,1s-0.4,1-1,1H5.2V21h2.9
				c0.5,0,1,0.4,1,1C9.1,22.5,8.6,23,8.1,23z"/>
		</g>
	</g>
	<g>
		<path class="st0" d="M29.8,21.7c-0.5,0-0.8-0.4-0.8-0.8s0.4-0.8,0.8-0.8c1.8,0,3-1.4,3-3.3c0-2-1.2-3.4-3-3.4
			c-0.5,0-0.8-0.4-0.8-0.8c0-0.5,0.4-0.8,0.8-0.8c2.7,0,4.7,2.2,4.7,5C34.4,19.5,32.4,21.7,29.8,21.7z"/>
	</g>
</g>
</svg>
