<?xml version="1.0" encoding="utf-8"?>
<!-- Generator: Adobe Illustrator 26.2.0, SVG Export Plug-In . SVG Version: 6.00 Build 0)  -->
<svg version="1.1" id="레이어_1" xmlns="http://www.w3.org/2000/svg" xmlns:xlink="http://www.w3.org/1999/xlink" x="0px"
	 y="0px" viewBox="0 0 37 34" style="enable-background:new 0 0 37 34;" xml:space="preserve">
<g>
	<path d="M1.9,11.4h32.5c0.4,0,0.7-0.3,0.8-0.7c0.1-0.4-0.1-0.8-0.5-1L18.5,1.7c-0.2-0.1-0.5-0.1-0.7,0L1.6,9.8
		c-0.3,0.2-0.5,0.6-0.5,1C1.2,11.1,1.5,11.4,1.9,11.4z M5.6,9.7l12.5-6.3l12.5,6.3H5.6z"/>
	<path d="M1.4,22.6h6.4c0.5,0,0.9-0.4,0.9-0.8v-8.9c0-0.4-0.4-0.8-0.9-0.8H1.4c-0.5,0-0.9,0.4-0.9,0.8v8.9
		C0.6,22.3,0.9,22.6,1.4,22.6z M2.3,15v-1.4H7V15H2.3z M2.3,18v-1.4H7V18H2.3z M2.3,21v-1.4H7V21H2.3z"/>
	<path d="M28.5,12c-0.5,0-0.9,0.4-0.9,0.8v8.9c0,0.4,0.4,0.8,0.9,0.8h6.4c0.5,0,0.9-0.4,0.9-0.8v-8.9c0-0.4-0.4-0.8-0.9-0.8H28.5z
		 M34,19.6V21h-4.7v-1.4H34z M34,16.7V18h-4.7v-1.4H34z M34,13.7V15h-4.7v-1.4H34z"/>
	<path d="M19.5,28.9c0.3-0.4,0.5-0.9,0.5-1.4c0-1.3-1.2-2.4-2.6-2.4c-1.5,0-2.6,1.1-2.6,2.4c0,0.2,0,0.5,0.1,0.7
		c-0.4-0.6-0.9-1.1-1.5-1.4c0.3-0.4,0.5-0.9,0.5-1.4c0-1.3-1.2-2.4-2.6-2.4c-1.5,0-2.6,1.1-2.6,2.4c0,0.5,0.2,1,0.5,1.4
		c-0.9,0.5-1.5,1.2-1.9,2.1c-0.1-0.1-0.2-0.1-0.3-0.2c0.3-0.4,0.5-0.9,0.5-1.4c0-1.3-1.2-2.4-2.6-2.4c-1.5,0-2.6,1.1-2.6,2.4
		c0,0.5,0.2,1,0.5,1.4c-1.3,0.7-2.1,2-2.1,3.4c0,0.4,0.4,0.8,0.8,0.8S2,32.5,2,32c0-1.3,1.2-2.4,2.6-2.4c1.4,0,2.6,1.1,2.6,2.4
		c0,0.4,0.4,0.8,0.8,0.8s0.8-0.3,0.8-0.8c0-0.6-0.1-1.2-0.4-1.7c0-0.1,0-0.1,0-0.2c0-1.3,1.2-2.4,2.6-2.4c1.4,0,2.6,1.1,2.6,2.4
		c0,0,0,0,0,0.1c-0.4,0.6-0.7,1.4-0.7,2.1c0,0.4,0.4,0.8,0.8,0.8s0.8-0.3,0.8-0.8c0-1.3,1.2-2.4,2.6-2.4c1.4,0,2.6,1.1,2.6,2.4
		c0,0.4,0.4,0.8,0.8,0.8c0.5,0,0.8-0.3,0.8-0.8C21.6,30.9,20.8,29.6,19.5,28.9z M17.3,26.6c0.5,0,1,0.4,1,0.9c0,0.5-0.4,0.9-1,0.9
		c-0.5,0-1-0.4-1-0.9C16.4,27,16.8,26.6,17.3,26.6z M15.2,28.9C15.2,28.9,15.2,28.9,15.2,28.9C15.2,28.9,15.2,28.9,15.2,28.9
		C15.2,28.9,15.2,28.9,15.2,28.9z M12.1,25.3c0,0.5-0.4,0.9-1,0.9c-0.5,0-1-0.4-1-0.9c0-0.5,0.4-0.9,1-0.9
		C11.7,24.4,12.1,24.8,12.1,25.3z M5.6,27.2c0,0.5-0.4,0.9-1,0.9c-0.5,0-1-0.4-1-0.9c0-0.5,0.4-0.9,1-0.9
		C5.2,26.3,5.6,26.7,5.6,27.2z"/>
	<path d="M34.5,27.5c0.3-0.4,0.5-0.9,0.5-1.4c0-1.3-1.2-2.4-2.6-2.4c-1.5,0-2.6,1.1-2.6,2.4c0,0.5,0.2,1,0.5,1.4
		c-0.5,0.3-1,0.7-1.4,1.1c-0.2-0.1-0.3-0.2-0.5-0.3c0.3-0.4,0.5-0.9,0.5-1.4c0-1.3-1.2-2.4-2.6-2.4c-1.5,0-2.6,1.1-2.6,2.4
		c0,0.5,0.2,1,0.5,1.4c-1.3,0.7-2.1,2-2.1,3.4c0,0.4,0.4,0.8,0.8,0.8c0.5,0,0.8-0.3,0.8-0.8c0-1.3,1.2-2.4,2.6-2.4
		c1.4,0,2.6,1.1,2.6,2.4c0,0.4,0.4,0.8,0.8,0.8s0.8-0.3,0.8-0.8c0-0.7-0.2-1.3-0.5-1.9c0.4-0.8,1.4-1.4,2.4-1.4
		c1.4,0,2.6,1.1,2.6,2.4c0,0.4,0.4,0.8,0.8,0.8s0.8-0.3,0.8-0.8C36.6,29.5,35.8,28.2,34.5,27.5z M33.3,26.1c0,0.5-0.4,0.9-1,0.9
		c-0.5,0-1-0.4-1-0.9c0-0.5,0.4-0.9,1-0.9C32.9,25.2,33.3,25.6,33.3,26.1z M27.2,27c0,0.5-0.4,0.9-1,0.9c-0.5,0-1-0.4-1-0.9
		c0-0.5,0.4-0.9,1-0.9C26.8,26.1,27.2,26.5,27.2,27z"/>
</g>
</svg>
