<?xml version="1.0" encoding="utf-8"?>
<!-- Generator: Adobe Illustrator 26.2.0, SVG Export Plug-In . SVG Version: 6.00 Build 0)  -->
<svg version="1.1" id="레이어_1" xmlns="http://www.w3.org/2000/svg" xmlns:xlink="http://www.w3.org/1999/xlink" x="0px"
	 y="0px" viewBox="0 0 34 38" style="enable-background:new 0 0 34 38;" xml:space="preserve">
<style type="text/css">
	.st0{fill:#202121;}
</style>
<path class="st0" d="M21.7,7.6h-4.8c-1.4,0-2.6-1.2-2.6-2.6c0-1.3,1-2.5,2.3-2.6c0.4-1.1,1.5-1.9,2.7-1.9c1.2,0,2.3,0.8,2.7,1.9
	c1.3,0.1,2.3,1.3,2.3,2.6C24.4,6.4,23.2,7.6,21.7,7.6z M16.9,4.2c-0.4,0-0.7,0.3-0.7,0.7c0,0.4,0.3,0.7,0.7,0.7h4.8
	c0.4,0,0.7-0.3,0.7-0.7c0-0.4-0.3-0.7-0.7-0.7h-0.5c-0.5,0-1-0.4-1-1c0-0.5-0.4-0.9-0.9-0.9c-0.5,0-0.9,0.4-0.9,0.9c0,0.5-0.4,1-1,1
	H16.9z"/>
<path class="st0" d="M32.3,37.1H6.4c-0.5,0-1-0.4-1-1V28c0-0.5,0.4-1,1-1s1,0.4,1,1v7.2h23.9V6h-7.9c-0.5,0-1-0.4-1-1s0.4-1,1-1h8.9
	c0.5,0,1,0.4,1,1v31.1C33.2,36.7,32.8,37.1,32.3,37.1z M6.4,14.2c-0.5,0-1-0.4-1-1V5c0-0.5,0.4-1,1-1h8.9c0.5,0,1,0.4,1,1
	s-0.4,1-1,1H7.4v7.2C7.4,13.8,7,14.2,6.4,14.2z"/>
<path class="st0" d="M8.7,28.9c-4.6,0-8.3-3.7-8.3-8.3c0-4.6,3.7-8.3,8.3-8.3c4.6,0,8.3,3.7,8.3,8.3C17,25.2,13.2,28.9,8.7,28.9z
	 M8.7,14.2c-3.5,0-6.4,2.9-6.4,6.4c0,3.5,2.9,6.4,6.4,6.4c3.5,0,6.4-2.9,6.4-6.4C15.1,17.1,12.2,14.2,8.7,14.2z M7.7,24.9
	c-0.2,0-0.5-0.1-0.6-0.3l-2.7-2.5c-0.4-0.4-0.4-1-0.1-1.4c0.4-0.4,1-0.4,1.4-0.1l2,1.8l3.7-4.6c0.3-0.4,0.9-0.5,1.4-0.1
	c0.4,0.3,0.5,0.9,0.1,1.4l-4.3,5.4c0,0-0.1,0.1-0.1,0.1C8.2,24.8,8,24.9,7.7,24.9z"/>
<path class="st0" d="M26,11.7H9.8c-0.5,0-1-0.4-1-1s0.4-1,1-1H26c0.5,0,1,0.4,1,1S26.6,11.7,26,11.7z"/>
<path class="st0" d="M25,22.6h-9c-0.5,0-1-0.4-1-1s0.4-1,1-1h9c0.5,0,1,0.4,1,1S25.5,22.6,25,22.6z"/>
<path class="st0" d="M23.7,17.2h-8.8c-0.5,0-1-0.4-1-1c0-0.5,0.4-1,1-1h8.8c0.5,0,1,0.4,1,1C24.6,16.7,24.2,17.2,23.7,17.2z"/>
<path class="st0" d="M26.5,28H12.8c-0.5,0-1-0.4-1-1c0-0.5,0.4-1,1-1h13.7c0.5,0,1,0.4,1,1C27.5,27.6,27.1,28,26.5,28z"/>
</svg>
