<?xml version="1.0" encoding="utf-8"?>
<!-- Generator: Adobe Illustrator 26.2.0, SVG Export Plug-In . SVG Version: 6.00 Build 0)  -->
<svg version="1.1" id="레이어_1" xmlns="http://www.w3.org/2000/svg" xmlns:xlink="http://www.w3.org/1999/xlink" x="0px"
	 y="0px" viewBox="0 0 44 34" style="enable-background:new 0 0 44 34;" xml:space="preserve">
<style type="text/css">
	.st0{fill:#222222;}
</style>
<g>
	<path class="st0" d="M12.6,1.3C5.7,1.3,0,7,0,13.9c0,5.8,3.9,10.8,9.4,12.2l3.2,7.3l3.2-7.3c5.6-1.5,9.4-6.5,9.4-12.2
		C25.3,7,19.6,1.3,12.6,1.3z M23.2,13.9c0,5-3.5,9.3-8.4,10.4l-0.5,0.1l-1.7,4l-1.7-3.9l0-0.1l-0.5-0.1C5.5,23.3,2,18.9,2,13.9
		C2,8.1,6.8,3.3,12.6,3.3S23.2,8.1,23.2,13.9z"/>
	<path class="st0" d="M31.4,1.3c-2.9,0-5.8,1-8,2.9l-0.1,0.1l1.3,1.6l0.1-0.1c1.9-1.6,4.3-2.4,6.7-2.4C37.2,3.3,42,8.1,42,13.9
		c0,5-3.5,9.3-8.4,10.4l-0.5,0.1l-1.7,4l-1.7-3.9l0-0.1l-0.5-0.1c-1.7-0.4-3.2-1.1-4.5-2.2L24.5,22l-1.3,1.6l0.1,0.1
		c1.4,1.2,3.1,2,4.9,2.5l3.2,7.3l3.2-7.3c5.6-1.5,9.4-6.5,9.4-12.2C44,7,38.3,1.3,31.4,1.3z"/>
	<polygon class="st0" points="26.8,17.3 28.2,18.7 31.4,15.6 34.4,18.6 34.5,18.7 35.9,17.3 32.8,14.2 35.8,11.1 35.9,11 34.5,9.6 
		31.4,12.7 28.3,9.7 28.2,9.6 26.8,11 29.9,14.2 26.9,17.2 	"/>
	<polygon class="st0" points="11.5,15.8 8.3,12.6 6.9,14.1 11.4,18.5 11.5,18.6 18.3,11.8 18.3,11.7 16.9,10.3 	"/>
</g>
</svg>
