<?xml version="1.0" encoding="utf-8"?>
<!-- Generator: Adobe Illustrator 26.2.0, SVG Export Plug-In . SVG Version: 6.00 Build 0)  -->
<svg version="1.1" id="레이어_1" xmlns="http://www.w3.org/2000/svg" xmlns:xlink="http://www.w3.org/1999/xlink" x="0px"
	 y="0px" viewBox="0 0 40 38" style="enable-background:new 0 0 40 38;" xml:space="preserve">
<style type="text/css">
	.st0{fill:none;}
	.st1{fill:#222222;}
</style>
<g>
	<path class="st0" d="M25.6,22.9c0,0.5,0.2,0.9,0.9,1.1l0.2-2.1C26,22.1,25.6,22.5,25.6,22.9z"/>
	<path class="st1" d="M29.7,12.6l-0.2,0V6.7c0-3.1-5.2-6.4-14.7-6.4C7.5,0.4,0.1,2.6,0.1,6.7v16.5h0l0,0.2c0.6,3.8,7.6,5.8,14.3,5.9
		l0.1,0l0,0.1c1.8,5.1,6.7,8.5,12,8.5c7.1,0,12.8-5.7,12.8-12.8C39.5,19.1,35.5,14,29.7,12.6z M14.8,2.5c7.8,0,12.6,2.5,12.6,4.2
		S22.6,11,14.8,11C7,11,2.2,8.5,2.2,6.7S7,2.5,14.8,2.5z M2.2,10.2l0.3,0.2c2.7,1.7,7.4,2.8,12.3,2.8c4.9,0,9.6-1.1,12.3-2.8
		l0.3-0.2l0,2.1l-0.2,0c-0.1,0-0.1,0-0.2,0c-0.1,0-0.2,0-0.3,0c-3.5,0-6.7,1.4-9.1,3.9l-0.1,0.1l-0.1,0c-0.9,0.1-1.7,0.1-2.6,0.1
		C7,16.3,2.2,13.8,2.2,12V10.2z M13.8,27.1C7,26.9,2.2,24.7,2.2,22.9v-2l0.3,0.2c2.5,1.6,6.6,2.6,11.2,2.7l0.2,0l0,0.2
		c0,0.4-0.1,0.7-0.1,1c0,0.6,0,1.1,0.1,1.8l0,0.2L13.8,27.1z M15.6,18.7c-0.5,0.9-0.9,1.9-1.2,2.8l0,0.1l-0.2,0
		c-7-0.1-12-2.3-12-4.2v-2l0.3,0.2c2.7,1.7,7.4,2.8,12.3,2.8c0.1,0,0.2,0,0.3,0c0.1,0,0.2,0,0.3,0l0.4,0L15.6,18.7z M26.7,35.7
		c-5.9,0-10.7-4.8-10.7-10.7s4.8-10.7,10.7-10.7c5.9,0,10.7,4.8,10.7,10.7S32.6,35.7,26.7,35.7z"/>
	<g>
		<g>
			<path class="st1" d="M28.1,24.5l-0.3,0l0.3-2.7l0.2,0c0.6,0.1,1.1,0.3,1.4,0.5l0.4-1.3c-0.4-0.2-1-0.4-1.7-0.5l-0.2,0l0.1-1h-1
				l-0.1,0.9l-0.2,0c-1.9,0.1-3.2,1.1-3.2,2.6c0,1.4,0.7,2.2,2.2,2.6l0.5,0.1l-0.3,2.9l-0.2,0c-0.7-0.1-1.4-0.4-1.9-0.7l-0.4,1.4
				c0.4,0.2,1.2,0.5,2.2,0.7l0.2,0L26,31.4h1l0.1-1.3l0.2,0c2-0.1,3.3-1.2,3.3-3C30.6,25.7,29.8,24.9,28.1,24.5z M26.8,24.3
				l-0.2-0.1c-0.9-0.3-1-0.9-1-1.3c0-0.6,0.5-1,1.3-1.1l0.3,0L26.8,24.3z M27.6,28.6l-0.3,0l0.3-2.7l0.2,0.1
				c0.7,0.2,1.1,0.5,1.1,1.3C29,28,28.4,28.5,27.6,28.6z"/>
		</g>
	</g>
</g>
</svg>
